1GB for the full Die Hard Pentalogy? NO WAY! Welcome to the Recapstore.

Please seed to at least a 1.5 ratio!

(Wikipedia) The Die Hard series is a series of action movies beginning with Die Hard in 1988, based on the 1979 bestselling novel, Nothing Lasts Forever by Roderick Thorp. All five films feature John McClane (Bruce Willis), a New York City and Los Angeles police detective.[2] The series so far has ran for 25 years.

Note For Die Hard 5: Sub #1 is the Russian to English translation, Sub #2 is the main English Subtitles. 

Seed till you bleed out your Ass!

Sample mediainfo from Die Hard (1988):

Format                                   : MPEG-4
Format profile                           : Base Media / Version 2
Codec ID                                 : mp42
File size                                : 195 MiB
Duration                                 : 2h 12mn
Overall bit rate mode                    : Variable
Overall bit rate                         : 206 Kbps
Encoded date                             : UTC 2012-12-22 18:58:32
Tagged date                              : UTC 2012-12-22 23:37:31

Video
ID                                       : 1
Format                                   : AVC
Format/Info                              : Advanced Video Codec
Format profile                           : High@L2.1
Format settings, CABAC                   : Yes
Format settings, ReFrames                : 15 frames
Codec ID                                 : avc1
Codec ID/Info                            : Advanced Video Coding
Duration                                 : 2h 12mn
Bit rate mode                            : Variable
Bit rate                                 : 138 Kbps
Width                                    : 352 pixels
Height                                   : 144 pixels
Display aspect ratio                     : 2.35:1
Frame rate mode                          : Variable
Frame rate                               : 23.976 fps
Minimum frame rate                       : 23.419 fps
Maximum frame rate                       : 24.390 fps
Color space                              : YUV
Chroma subsampling                       : 4:2:0
Bit depth                                : 8 bits
Scan type                                : Progressive
Bits/(Pixel*Frame)                       : 0.113
Stream size                              : 130 MiB (67%)
Writing library                          : x264 core 120
Encoding settings                        : cabac=1 / ref=16 / deblock=1:4:4 / analyse=0x3:0x133 / me=tesa / subme=10 / psy=1 / psy_rd=1.30:0.20 / mixed_ref=1 / me_range=64 / chroma_me=1 / trellis=2 / 8x8dct=1 / cqm=0 / deadzone=21,11 / fast_pskip=1 / chroma_qp_offset=-3 / threads=6 / sliced_threads=0 / nr=0 / decimate=1 / interlaced=0 / bluray_compat=0 / constrained_intra=0 / bframes=16 / b_pyramid=1 / b_adapt=2 / b_bias=0 / direct=1 / weightb=1 / open_gop=0 / weightp=2 / keyint=240 / keyint_min=24 / scenecut=40 / intra_refresh=0 / rc_lookahead=40 / rc=crf / mbtree=1 / crf=23.0 / qcomp=0.60 / qpmin=3 / qpmax=69 / qpstep=4 / ip_ratio=1.40 / aq=1:2.00
Encoded date                             : UTC 2012-12-22 18:58:32
Tagged date                              : UTC 2012-12-22 23:37:31
Color primaries                          : BT.601 NTSC
Transfer characteristics                 : BT.709
Matrix coefficients                      : BT.601

Audio
ID                                       : 2
Format                                   : AAC
Format/Info                              : Advanced Audio Codec
Format profile                           : LC
Codec ID                                 : 40
Duration                                 : 2h 12mn
Bit rate mode                            : Variable
Bit rate                                 : 64.0 Kbps
Maximum bit rate                         : 131 Kbps
Channel(s)                               : 2 channels
Channel positions                        : Front: L R
Sampling rate                            : 24.0 KHz
Compression mode                         : Lossy
Delay relative to video                  : 83ms
Stream size                              : 60.5 MiB (31%)
Encoded date                             : UTC 2012-12-22 18:58:32
Tagged date                              : UTC 2012-12-22 23:37:30